<svg id="visual" viewBox="0 0 900 600" width="900" height="600" xmlns="http://www.w3.org/2000/svg" xmlns:xlink="http://www.w3.org/1999/xlink" version="1.1"><rect x="0" y="0" width="900" height="600" fill="#001729"></rect><defs><linearGradient id="grad1_0" x1="33.3%" y1="0%" x2="100%" y2="100%"><stop offset="20%" stop-color="#001729" stop-opacity="1"></stop><stop offset="80%" stop-color="#001729" stop-opacity="1"></stop></linearGradient></defs><defs><linearGradient id="grad2_0" x1="0%" y1="0%" x2="66.7%" y2="100%"><stop offset="20%" stop-color="#001729" stop-opacity="1"></stop><stop offset="80%" stop-color="#001729" stop-opacity="1"></stop></linearGradient></defs><g transform="translate(900, 0)"><path d="M0 405.6C-44.5 405.7 -89 405.8 -125.3 385.8C-161.7 365.8 -189.8 325.7 -211.6 291.2C-233.4 256.8 -249 228 -279.1 202.8C-309.3 177.6 -354 155.9 -377.6 122.7C-401.1 89.5 -403.4 44.7 -405.6 0L0 0Z" fill="#ffaa00"></path></g><g transform="translate(0, 600)"><path d="M0 -405.6C43.5 -403.6 86.9 -401.6 125.3 -385.8C163.8 -370 197.1 -340.4 225.1 -309.9C253.1 -279.3 275.7 -247.6 296.9 -215.7C318.1 -183.8 337.8 -151.6 355.7 -115.6C373.6 -79.6 389.6 -39.8 405.6 0L0 0Z" fill="#ffaa00"></path></g></svg>